<svg xmlns="http://www.w3.org/2000/svg" width="13" height="13" viewBox="0 0 13 13">
    <path fill="#FFF" fill-rule="nonzero" d="M12.542 7.586c.066-.367.102-.741.102-1.116 0-.831-.162-1.638-.483-2.395a6.128 6.128 0 0 0-1.316-1.957A6.106 6.106 0 0 0 6.505.316c-.391 0-.783.038-1.163.11A3.651 3.651 0 0 0 3.634 0c-.97 0-1.884.38-2.57 1.067A3.626 3.626 0 0 0 0 3.643c0 .62.16 1.229.457 1.766a6.122 6.122 0 0 0 .39 3.456c.309.733.75 1.391 1.315 1.957a6.106 6.106 0 0 0 4.34 1.802c.361 0 .722-.033 1.076-.096A3.63 3.63 0 0 0 9.366 13a3.6 3.6 0 0 0 2.57-1.067A3.619 3.619 0 0 0 13 9.357a3.631 3.631 0 0 0-.458-1.771zm-1.432 3.52a2.458 2.458 0 0 1-2.955.402L7.79 11.3l-.415.073a4.918 4.918 0 0 1-2.807-.314 4.934 4.934 0 0 1-1.58-1.068 4.958 4.958 0 0 1-1.454-3.52c0-.284.026-.574.075-.86l.071-.41-.201-.363a2.465 2.465 0 0 1 .411-2.943 2.446 2.446 0 0 1 1.744-.723c.401 0 .801.101 1.16.292l.364.192.403-.078c.308-.059.625-.09.943-.09a4.932 4.932 0 0 1 3.514 1.458c.458.458.816.991 1.066 1.584a5.018 5.018 0 0 1 .307 2.843l-.076.416.204.368c.205.366.312.782.312 1.2 0 .664-.255 1.28-.721 1.747zM7.66 5.754l-1.436-.32c-.547-.125-1.176-.29-1.176-.806 0-.517.44-.878 1.237-.878 1.604 0 1.458 1.104 2.254 1.104.42 0 .787-.247.787-.671 0-.99-1.583-1.735-2.925-1.735-1.458 0-3.01.62-3.01 2.273 0 .795.283 1.642 1.846 2.035l1.94.485c.587.145.735.476.735.776 0 .497-.492.982-1.385.982-1.742 0-1.5-1.344-2.432-1.344-.42 0-.724.29-.724.702 0 .805.975 1.88 3.156 1.88 2.076 0 3.105-1.002 3.105-2.346 0-.865-.399-1.785-1.972-2.137z" opacity=".4"/>
</svg>
